<svg 
 xmlns="http://www.w3.org/2000/svg"
 xmlns:xlink="http://www.w3.org/1999/xlink"
 width="18px" height="13px">
<path fill-rule="evenodd"  fill="rgb(1, 129, 203)"
 d="M17.500,7.000 L0.500,7.000 C0.224,7.000 -0.000,6.776 -0.000,6.500 C-0.000,6.224 0.224,6.000 0.500,6.000 L17.500,6.000 C17.776,6.000 18.000,6.224 18.000,6.500 C18.000,6.776 17.776,7.000 17.500,7.000 ZM17.500,1.000 L0.500,1.000 C0.224,1.000 -0.000,0.776 -0.000,0.500 C-0.000,0.224 0.224,-0.000 0.500,-0.000 L17.500,-0.000 C17.776,-0.000 18.000,0.224 18.000,0.500 C18.000,0.776 17.776,1.000 17.500,1.000 ZM0.500,12.000 L17.500,12.000 C17.776,12.000 18.000,12.224 18.000,12.500 C18.000,12.776 17.776,13.000 17.500,13.000 L0.500,13.000 C0.224,13.000 -0.000,12.776 -0.000,12.500 C-0.000,12.224 0.224,12.000 0.500,12.000 Z"/>
</svg>
